<svg xmlns="http://www.w3.org/2000/svg" width="512" height="512" fill="none" viewBox="0 0 512 512">
  <path fill="#fff" d="M0 0h512v512H0z"/>
  <path fill="#E1E51A" d="M426.391 56H85.531C69.203 56 56 68.89 56 84.828v342.266C56 443.031 69.203 456 85.531 456h340.86C442.719 456 456 443.031 456 427.172V84.828C456 68.891 442.719 56 426.391 56ZM174.672 396.859h-59.375V205.922h59.375v190.937Zm-29.688-216.953c-19.062 0-34.453-15.39-34.453-34.375 0-18.984 15.391-34.375 34.453-34.375 18.985 0 34.375 15.391 34.375 34.375 0 18.906-15.39 34.375-34.375 34.375Zm251.875 216.953h-59.297v-92.812c0-22.11-.39-50.625-30.859-50.625-30.859 0-35.547 24.14-35.547 49.062v94.375h-59.218V205.922h56.874v26.094h.782c7.89-15 27.265-30.86 56.094-30.86 60.078 0 71.171 39.532 71.171 90.938v104.765Z"/>
</svg>
