<svg xmlns="http://www.w3.org/2000/svg" width="512" height="512" fill="none" viewBox="0 0 512 512">
  <path fill="#fff" d="M0 0h512v512H0z"/>
  <path fill="#E1E51A" d="M256.625 92.023c56.81 0 63.538.234 85.88 1.172 20.764.86 31.977 4.141 39.452 6.876 9.884 3.595 17.026 7.97 24.418 14.925 7.475 7.033 12.044 13.674 15.864 22.973 2.907 7.033 6.396 17.66 7.309 37.117.997 21.098 1.246 27.427 1.246 80.797 0 53.448-.249 59.777-1.246 80.797-.913 19.535-4.402 30.084-7.309 37.116-3.82 9.299-8.472 16.019-15.864 22.974-7.475 7.032-14.534 11.33-24.418 14.925-7.475 2.734-18.771 6.016-39.452 6.876-22.425.938-29.153 1.172-85.88 1.172-56.811 0-63.539-.234-85.881-1.172-20.764-.86-31.977-4.142-39.452-6.876-9.883-3.595-17.026-7.971-24.418-14.925-7.475-7.033-12.043-13.675-15.864-22.974-2.907-7.032-6.395-17.659-7.309-37.116-.997-21.098-1.246-27.427-1.246-80.797 0-53.448.25-59.778 1.246-80.797.914-19.535 4.402-30.084 7.309-37.117 3.82-9.299 8.472-16.019 15.864-22.973 7.475-7.033 14.535-11.33 24.418-14.925 7.475-2.735 18.771-6.017 39.452-6.876 22.342-.938 29.07-1.172 85.881-1.172Zm0-36.023c-57.725 0-64.951.234-87.625 1.172-22.591.938-38.123 4.376-51.578 9.299-14.037 5.157-25.914 11.955-37.708 23.13-11.877 11.095-19.103 22.269-24.584 35.397-5.233 12.737-8.888 27.271-9.884 48.525-.997 21.41-1.246 28.209-1.246 82.516 0 54.308.25 61.106 1.246 82.438.996 21.254 4.651 35.866 9.884 48.525 5.481 13.206 12.707 24.38 24.584 35.476 11.794 11.096 23.671 17.972 37.625 23.051 13.538 4.923 28.987 8.361 51.578 9.299 22.674.938 29.9 1.172 87.625 1.172 57.724 0 64.95-.234 87.624-1.172 22.591-.938 38.123-4.376 51.578-9.299 13.954-5.079 25.831-11.955 37.625-23.051 11.794-11.096 19.103-22.27 24.501-35.398 5.233-12.737 8.887-27.271 9.884-48.525.997-21.332 1.246-28.13 1.246-82.438 0-54.307-.249-61.105-1.246-82.438-.997-21.254-4.651-35.866-9.884-48.525-5.232-13.284-12.458-24.458-24.335-35.554-11.794-11.096-23.671-17.972-37.625-23.051-13.538-4.923-28.986-8.361-51.578-9.299-22.757-1.016-29.983-1.25-87.707-1.25Z"/>
  <path fill="#E1E51A" d="M256.5 156C194.39 156 144 200.791 144 256s50.39 100 112.5 100S369 311.209 369 256s-50.39-100-112.5-100Zm0 164.867c-40.295 0-72.975-29.05-72.975-64.867 0-35.817 32.68-64.867 72.975-64.867 40.295 0 72.975 29.05 72.975 64.867 0 35.817-32.68 64.867-72.975 64.867ZM394 156c0 13.844-11.238 25-25 25-13.844 0-25-11.238-25-25 0-13.844 11.238-25 25-25s25 11.238 25 25Z"/>
</svg>
