<svg xmlns="http://www.w3.org/2000/svg" width="512" height="512" fill="none" viewBox="0 0 512 512">
  <path fill="#fff" d="M0 0h512v512H0z"/>
  <path stroke="#085C58" stroke-width="34.24" d="m382.825 293.936 58.847 58.847c7.913 7.913 7.913 20.743 0 28.656-42.783 42.783-110.514 47.596-158.917 11.294l-35.009-26.257a511.124 511.124 0 0 1-102.222-102.222l-26.257-35.009c-36.302-48.403-31.489-116.134 11.294-158.917 7.913-7.913 20.743-7.913 28.656 0l58.847 58.847c8.679 8.679 8.679 22.749 0 31.427l-22.692 22.693a11.848 11.848 0 0 0-2.219 13.677 272.522 272.522 0 0 0 121.875 121.875 11.848 11.848 0 0 0 13.677-2.219l22.693-22.692c8.678-8.679 22.748-8.679 31.427 0Z"/>
</svg>
