<svg xmlns="http://www.w3.org/2000/svg" width="512" height="512" fill="none" viewBox="0 0 512 512">
  <path fill="#fff" d="M0 0h512v512H0z"/>
  <path fill="#E1E51A" d="M466 256.855C466 147.03 371.98 58 256 58S46 147.03 46 256.855c0 99.253 76.794 181.521 177.188 196.439V314.336h-53.321v-57.481h53.321v-43.81c0-49.838 31.352-77.367 79.32-77.367 22.968 0 47.008 3.884 47.008 3.884v48.937h-26.48c-26.086 0-34.224 15.329-34.224 31.071v37.285h58.243l-9.311 57.481h-48.932v138.958C389.206 438.376 466 356.108 466 256.855Z"/>
</svg>
