<svg xmlns="http://www.w3.org/2000/svg" width="512" height="512" fill="none" viewBox="0 0 512 512">
  <path fill="#fff" d="M0 0h512v512H0z"/>
  <path fill="#E1E51A" d="M461.816 171.97s-4.101-29.062-16.734-41.823c-15.996-16.796-33.879-16.878-42.082-17.866C344.266 108 256.082 108 256.082 108h-.164s-88.184 0-146.918 4.281c-8.203.988-26.086 1.07-42.082 17.866-12.633 12.761-16.652 41.823-16.652 41.823S46 206.137 46 240.222v31.944c0 34.085 4.184 68.252 4.184 68.252s4.101 29.062 16.652 41.823c15.996 16.796 36.996 16.219 46.348 18.031C146.816 403.483 256 404.471 256 404.471s88.266-.165 147-4.364c8.203-.988 26.086-1.07 42.082-17.866 12.633-12.761 16.734-41.823 16.734-41.823S466 306.333 466 272.166v-31.944c0-34.085-4.184-68.252-4.184-68.252ZM212.605 310.944V192.471l113.45 59.442-113.45 59.031Z"/>
</svg>
