<?xml version="1.0" encoding="utf-8"?>
<!-- Generator: Adobe Illustrator 26.5.0, SVG Export Plug-In . SVG Version: 6.00 Build 0)  -->
<svg version="1.1" id="Camada_1" xmlns="http://www.w3.org/2000/svg" xmlns:xlink="http://www.w3.org/1999/xlink" x="0px" y="0px"
	 viewBox="0 0 512 512" style="enable-background:new 0 0 512 512;" xml:space="preserve">
<style type="text/css">
	.st0{fill:#DEDD2C;}
	.st1{fill:#2E2325;}
</style>
<g>
	<g>
		<g>
			<g>
				<g>
					<g>
						<path class="st0" d="M414.75,230.77c-4.91-9.11-14.94-20.95-34.78-25.64c-5.17-1.22-10.32-1.71-15.35-1.51
							c-3.87-6.77-10.68-15.09-22.33-21.05l2.97-11.88c10.27-41.07,19.97-79.87,2.55-106.33c-5.49-8.34-16.11-18.93-35.52-22.08
							c-17.43-2.83-42.12-0.51-60.71,26.6c-10.49,15.3-17.77,36.7-25.4,64.1c-1.13-3.22-2.21-6.37-3.27-9.45
							c-7.01-20.31-13.06-37.85-21.65-51.52c-16.32-25.97-37.67-29.96-52.71-28.73c-25.17,2.06-38.99,15.04-46.15,25.57
							c-14.65,21.54-15.75,53.31-3.28,94.42c12.42,40.93,22.8,71.12,28.96,88.32c-8.46,11.87-16.56,30.41-19.84,59.24
							c-3.75,32.91,1.11,65.59,12.99,87.41c22,40.39,62.81,66.8,109.09,71.59c5.69,0.59,11.46,0.85,17.29,0.77
							c35.93-0.48,68.24-13.8,93.42-38.52c19.93-19.56,34.4-45.71,41.35-74.36c16.08-15.87,24.64-39.33,29.4-52.39
							C419.27,284.85,427.71,254.8,414.75,230.77z"/>
					</g>
				</g>
			</g>
		</g>
	</g>
	<g>
		<g>
			<g>
				<g>
					<g>
						<path class="st1" d="M340.02,352c-15.42-1.6-24.73-12.89-24.29-29.47c0.08-2.91,2.5-5.21,5.41-5.14
							c2.91,0.09,5.21,2.5,5.14,5.41c-0.13,5.15,1.04,17.27,14.83,18.7c13.22,1.37,25.09-6.15,40.1-47.3
							c8.24-22.59,9.88-38.73,4.89-47.98c-2.58-4.78-7.03-7.86-13.61-9.41c-11.13-2.62-18.9,3.03-23.46,8.23
							c-1.92,2.19-5.25,2.42-7.45,0.5c-2.19-1.92-2.41-5.25-0.49-7.45c9.14-10.44,21.15-14.55,33.83-11.55
							c9.55,2.25,16.44,7.19,20.48,14.67c6.57,12.19,5.18,30.71-4.27,56.61C376.28,338.53,361.48,354.22,340.02,352z"/>
					</g>
				</g>
			</g>
		</g>
		<g>
			<g>
				<g>
					<g>
						<path class="st1" d="M287.28,348.66c-1.88-0.19-3.83-0.52-5.84-0.99c-8.81-2.05-19.7-8.78-21.52-29.19
							c-0.26-2.9,1.88-5.47,4.79-5.73c2.9-0.26,5.47,1.88,5.73,4.79c1.36,15.3,8.3,18.65,13.4,19.84
							c17.94,4.18,32.2-4.06,47.87-57.94c6.79-23.33,12.05-46.7,4.69-59.61c-3.04-5.33-8.23-8.88-15.86-10.84
							c-8.01-2.06-14.3-1.62-19.22,1.35c-10.95,6.58-16.57,26.66-21.83,48.42c-0.68,2.83-3.54,4.58-6.37,3.89
							c-2.83-0.68-4.58-3.54-3.89-6.37c6.02-24.94,12.18-46.29,26.65-54.99c7.47-4.49,16.4-5.32,27.29-2.52
							c10.4,2.67,17.94,8,22.4,15.83c8.79,15.42,4.87,38.25-3.72,67.79C329.68,324.21,315.52,351.58,287.28,348.66z"/>
					</g>
				</g>
			</g>
		</g>
		<g>
			<g>
				<g>
					<g>
						<path class="st1" d="M159.03,263.47c-1.91-0.2-3.64-1.43-4.38-3.35c-0.15-0.38-14.92-38.78-34.48-103.23
							c-10.3-33.95-10.16-60.11,0.42-75.67c6.49-9.55,16.5-14.94,29.76-16.02c28.36-2.32,38.19,26.13,51.78,65.5
							c1.58,4.58,3.22,9.33,4.95,14.22c9.42,26.6,17.09,46.73,21.94,59.11c4.4-15.44,11.55-40.63,18.08-64.18
							c13.34-48.11,25.59-81.73,61.67-75.86c9.26,1.5,16.21,5.7,20.67,12.47c12.12,18.39,3.55,52.64-5.52,88.9l-9.05,36.21
							c-0.71,2.83-3.57,4.54-6.4,3.84c-2.83-0.71-4.55-3.57-3.84-6.4l9.06-36.21c8.12-32.45,16.51-66,6.94-80.53
							c-2.81-4.26-7.24-6.83-13.55-7.86c-22.9-3.73-34.09,11.59-49.81,68.26c-10.34,37.3-22.23,78.68-22.35,79.1
							c-0.62,2.15-2.53,3.68-4.77,3.81c-2.24,0.12-4.31-1.17-5.18-3.24c-0.11-0.27-11.31-27.18-27.86-73.89
							c-1.74-4.92-3.39-9.7-4.98-14.3c-13.62-39.48-21.62-60-40.94-58.43c-10.06,0.82-17.22,4.56-21.89,11.44
							c-8.72,12.82-8.39,35.88,0.95,66.67c19.43,64.03,34.08,102.11,34.23,102.49c1.05,2.72-0.3,5.78-3.02,6.83
							C160.66,263.46,159.83,263.56,159.03,263.47z"/>
					</g>
				</g>
			</g>
		</g>
		<g>
			<g>
				<g>
					<g>
						<path class="st1" d="M232.61,447.97c-39.13-4.05-73.57-26.27-92.07-60.23c-21.33-39.16-11.89-116.81,16.28-134.02
							c18.81-11.49,38.05-8.52,58.41-5.37c7.55,1.17,15.36,2.38,23.63,2.97c3.41,0.24,7.08,0.4,10.98,0.57
							c19.48,0.83,41.56,1.77,49.62,14.73c4.13,6.63,3.87,15.31-0.75,25.81c-7.82,17.74-25.54,29.21-51.26,33.17
							c-7.77,1.2-15.12,1.54-21.12,1.53c7.65,9.49,15.84,25.63,12.54,49.33c-0.4,2.89-3.09,4.88-5.96,4.5
							c-2.89-0.4-4.9-3.07-4.5-5.96c4.7-33.71-17.95-48.83-18.91-49.46c-2.07-1.34-2.94-3.94-2.09-6.26
							c0.85-2.31,3.16-3.72,5.62-3.42c0.6,0.08,60.58,7.36,76.02-27.69c3.13-7.11,3.62-12.49,1.45-15.98
							c-5.12-8.22-25.07-9.08-41.1-9.76c-3.97-0.17-7.72-0.33-11.28-0.59c-8.7-0.62-16.72-1.87-24.48-3.07
							c-19.99-3.09-35.78-5.54-51.29,3.94c-10.35,6.32-18.88,26.66-21.74,51.81c-2.97,26.12,0.56,52.24,9.24,68.15
							c18.91,34.72,56.23,55.94,97.37,55.39c60.65-0.82,96.51-48.38,105.13-95.15c0.53-2.87,3.29-4.76,6.15-4.23
							c2.87,0.53,4.76,3.28,4.23,6.15c-9.41,51.01-48.73,102.89-115.37,103.79C242.36,448.7,237.44,448.47,232.61,447.97z"/>
					</g>
				</g>
			</g>
		</g>
	</g>
</g>
</svg>
